<svg xmlns="http://www.w3.org/2000/svg" viewBox="0 0 100 100" fill="none" stroke="currentColor" stroke-width="2" stroke-linecap="round" stroke-linejoin="round">
  <!-- Stylized Saffron Flower -->
  <path d="M50 80 C 20 80 10 40 50 10 C 90 40 80 80 50 80 Z" fill="#702963" stroke="none" opacity="0.8" />
  <path d="M50 80 C 30 70 20 30 50 20 C 80 30 70 70 50 80 Z" fill="#9932CC" stroke="none" opacity="0.9" />
  <path d="M50 80 C 40 60 40 40 50 30 C 60 40 60 60 50 80 Z" fill="#dda0dd" stroke="none" />
  
  <!-- Saffron Threads (Stigmas) -->
  <path d="M50 50 Q 40 40 35 25" stroke="#cc0000" stroke-width="3" fill="none" />
  <path d="M50 50 Q 60 40 65 25" stroke="#cc0000" stroke-width="3" fill="none" />
  <path d="M50 50 Q 50 35 50 20" stroke="#cc0000" stroke-width="3" fill="none" />
</svg>
